<svg width="0" height="0" class="hidden">
<!-- TODO: readd links to fontawesome svg icons. They're ones that don't have viewBox of '0 0 24 24' -->

<!--main logo-->
  <symbol aria-hidden="true" focusable="false" role="img" xmlns="http://www.w3.org/2000/svg" viewBox="0 0 189.91 130.7" id="icon-logo">
    <g transform="translate(-6.7989 -97.001)">
      <text transform="matrix(13.904 0 0 13.904 -630.55 -1382.3)" fill="#000000" font-family="sans-serif" font-size="10.583px" font-weight="bold" style="font-variant-caps:normal;font-variant-east-asian:normal;font-variant-ligatures:normal;font-variant-numeric:normal;line-height:1.25;shape-inside:url(#rect12);white-space:pre" xml:space="preserve"><tspan x="45.310547" y="114.24655"><tspan font-family="sans-serif" font-size="10.583px" font-weight="bold" style="font-variant-caps:normal;font-variant-east-asian:normal;font-variant-ligatures:normal;font-variant-numeric:normal">Qr</tspan></tspan></text>
    </g>
  </symbol>

<!--theme switcher icons-->
  <symbol aria-hidden="true" focusable="false" role="img" xmlns="http://www.w3.org/2000/svg" viewBox="0 0 512 512" id="icon-sun">
    <path d="M256 159.1c-53.02 0-95.1 42.98-95.1 95.1S202.1 351.1 256 351.1s95.1-42.98 95.1-95.1S309 159.1 256 159.1zM509.3 347L446.1 255.1l63.15-91.01c6.332-9.125 1.104-21.74-9.826-23.72l-109-19.7l-19.7-109c-1.975-10.93-14.59-16.16-23.72-9.824L256 65.89L164.1 2.736c-9.125-6.332-21.74-1.107-23.72 9.824L121.6 121.6L12.56 141.3C1.633 143.2-3.596 155.9 2.736 164.1L65.89 256l-63.15 91.01c-6.332 9.125-1.105 21.74 9.824 23.72l109 19.7l19.7 109c1.975 10.93 14.59 16.16 23.72 9.824L256 446.1l91.01 63.15c9.127 6.334 21.75 1.107 23.72-9.822l19.7-109l109-19.7C510.4 368.8 515.6 356.1 509.3 347zM256 383.1c-70.69 0-127.1-57.31-127.1-127.1c0-70.69 57.31-127.1 127.1-127.1s127.1 57.3 127.1 127.1C383.1 326.7 326.7 383.1 256 383.1z"></path>
  </symbol>
  <symbol aria-hidden="true" focusable="false" role="img" xmlns="http://www.w3.org/2000/svg" viewBox="0 0 512 512" id="icon-moon">
    <path d="M32 256c0-123.8 100.3-224 223.8-224c11.36 0 29.7 1.668 40.9 3.746c9.616 1.777 11.75 14.63 3.279 19.44C245 86.5 211.2 144.6 211.2 207.8c0 109.7 99.71 193 208.3 172.3c9.561-1.805 16.28 9.324 10.11 16.95C387.9 448.6 324.8 480 255.8 480C132.1 480 32 379.6 32 256z"></path>
  </symbol>

<!--miscellaneous logos-->
  <!-- on about page -->
    <symbol aria-hidden="true" focusable="false" role="img" xmlns="http://www.w3.org/2000/svg" viewBox="0 0 384 512" id="icon-down">
      <path d="M169.4 278.6C175.6 284.9 183.8 288 192 288s16.38-3.125 22.62-9.375l160-160c12.5-12.5 12.5-32.75 0-45.25s-32.75-12.5-45.25 0L192 210.8L54.63 73.38c-12.5-12.5-32.75-12.5-45.25 0s-12.5 32.75 0 45.25L169.4 278.6zM329.4 265.4L192 402.8L54.63 265.4c-12.5-12.5-32.75-12.5-45.25 0s-12.5 32.75 0 45.25l160 160C175.6 476.9 183.8 480 192 480s16.38-3.125 22.62-9.375l160-160c12.5-12.5 12.5-32.75 0-45.25S341.9 252.9 329.4 265.4z"></path>
    </symbol>
    <symbol aria-hidden="true" focusable="false" role="img" xmlns="http://www.w3.org/2000/svg" viewBox="0 0 448 512" id="icon-spy">
      <path d="M377.7 338.8l37.15-92.87C419 235.4 411.3 224 399.1 224h-57.48C348.5 209.2 352 193 352 176c0-4.117-.8359-8.057-1.217-12.08C390.7 155.1 416 142.3 416 128c0-16.08-31.75-30.28-80.31-38.99C323.8 45.15 304.9 0 277.4 0c-10.38 0-19.62 4.5-27.38 10.5c-15.25 11.88-36.75 11.88-52 0C190.3 4.5 181.1 0 170.7 0C143.2 0 124.4 45.16 112.5 88.98C63.83 97.68 32 111.9 32 128c0 14.34 25.31 27.13 65.22 35.92C96.84 167.9 96 171.9 96 176C96 193 99.47 209.2 105.5 224H48.02C36.7 224 28.96 235.4 33.16 245.9l37.15 92.87C27.87 370.4 0 420.4 0 477.3C0 496.5 15.52 512 34.66 512H413.3C432.5 512 448 496.5 448 477.3C448 420.4 420.1 370.4 377.7 338.8zM176 479.1L128 288l64 32l16 32L176 479.1zM271.1 479.1L240 352l16-32l64-32L271.1 479.1zM320 186C320 207 302.8 224 281.6 224h-12.33c-16.46 0-30.29-10.39-35.63-24.99C232.1 194.9 228.4 192 224 192S215.9 194.9 214.4 199C209 213.6 195.2 224 178.8 224h-12.33C145.2 224 128 207 128 186V169.5C156.3 173.6 188.1 176 224 176s67.74-2.383 96-6.473V186z"></path>
    </symbol>
    <symbol aria-hidden="true" focusable="false" role="img" xmlns="http://www.w3.org/2000/svg" viewBox="0 0 512 512" id="icon-fingerprint">
      <path d="M256.1 246c-13.25 0-23.1 10.75-23.1 23.1c1.125 72.25-8.124 141.9-27.75 211.5C201.7 491.3 206.6 512 227.5 512c10.5 0 20.12-6.875 23.12-17.5c13.5-47.87 30.1-125.4 29.5-224.5C280.1 256.8 269.4 246 256.1 246zM255.2 164.3C193.1 164.1 151.2 211.3 152.1 265.4c.75 47.87-3.75 95.87-13.37 142.5c-2.75 12.1 5.624 25.62 18.62 28.37c12.1 2.625 25.62-5.625 28.37-18.62c10.37-50.12 15.12-101.6 14.37-152.1C199.7 238.6 219.1 212.1 254.5 212.3c31.37 .5 57.24 25.37 57.62 55.5c.8749 47.1-2.75 96.25-10.62 143.5c-2.125 12.1 6.749 25.37 19.87 27.62c19.87 3.25 26.75-15.12 27.5-19.87c8.249-49.1 12.12-101.1 11.25-151.1C359.2 211.1 312.2 165.1 255.2 164.3zM144.6 144.5C134.2 136.1 119.2 137.6 110.7 147.9C85.25 179.4 71.38 219.3 72 259.9c.6249 37.62-2.375 75.37-8.999 112.1c-2.375 12.1 6.249 25.5 19.25 27.87c20.12 3.5 27.12-14.87 27.1-19.37c7.124-39.87 10.5-80.62 9.749-121.4C119.6 229.3 129.2 201.3 147.1 178.3C156.4 167.9 154.9 152.9 144.6 144.5zM253.1 82.14C238.6 81.77 223.1 83.52 208.2 87.14c-12.87 2.1-20.87 15.1-17.87 28.87c3.125 12.87 15.1 20.75 28.1 17.75C230.4 131.3 241.7 130 253.4 130.1c75.37 1.125 137.6 61.5 138.9 134.6c.5 37.87-1.375 75.1-5.624 113.6c-1.5 13.12 7.999 24.1 21.12 26.5c16.75 1.1 25.5-11.87 26.5-21.12c4.625-39.75 6.624-79.75 5.999-119.7C438.6 165.3 355.1 83.64 253.1 82.14zM506.1 203.6c-2.875-12.1-15.51-21.25-28.63-18.38c-12.1 2.875-21.12 15.75-18.25 28.62c4.75 21.5 4.875 37.5 4.75 61.62c-.1249 13.25 10.5 24.12 23.75 24.25c13.12 0 24.12-10.62 24.25-23.87C512.1 253.8 512.3 231.8 506.1 203.6zM465.1 112.9c-48.75-69.37-128.4-111.7-213.3-112.9c-69.74-.875-134.2 24.84-182.2 72.96c-46.37 46.37-71.34 108-70.34 173.6l-.125 21.5C-.3651 281.4 10.01 292.4 23.26 292.8C23.51 292.9 23.76 292.9 24.01 292.9c12.1 0 23.62-10.37 23.1-23.37l.125-23.62C47.38 193.4 67.25 144 104.4 106.9c38.87-38.75 91.37-59.62 147.7-58.87c69.37 .1 134.7 35.62 174.6 92.37c7.624 10.87 22.5 13.5 33.37 5.875C470.1 138.6 473.6 123.8 465.1 112.9z"></path>
    </symbol>
    <symbol aria-hidden="true" focusable="false" role="img" xmlns="http://www.w3.org/2000/svg" viewBox="0 0 384 512" id="icon-bolt">
      <path d="M240.5 224H352C365.3 224 377.3 232.3 381.1 244.7C386.6 257.2 383.1 271.3 373.1 280.1L117.1 504.1C105.8 513.9 89.27 514.7 77.19 505.9C65.1 497.1 60.7 481.1 66.59 467.4L143.5 288H31.1C18.67 288 6.733 279.7 2.044 267.3C-2.645 254.8 .8944 240.7 10.93 231.9L266.9 7.918C278.2-1.92 294.7-2.669 306.8 6.114C318.9 14.9 323.3 30.87 317.4 44.61L240.5 224z"></path>
    </symbol>
    <symbol aria-hidden="true" focusable="false" role="img" xmlns="http://www.w3.org/2000/svg" viewBox="0 0 640 512" id="icon-code">
      <path d="M414.8 40.79L286.8 488.8C281.9 505.8 264.2 515.6 247.2 510.8C230.2 505.9 220.4 488.2 225.2 471.2L353.2 23.21C358.1 6.216 375.8-3.624 392.8 1.232C409.8 6.087 419.6 23.8 414.8 40.79H414.8zM518.6 121.4L630.6 233.4C643.1 245.9 643.1 266.1 630.6 278.6L518.6 390.6C506.1 403.1 485.9 403.1 473.4 390.6C460.9 378.1 460.9 357.9 473.4 345.4L562.7 256L473.4 166.6C460.9 154.1 460.9 133.9 473.4 121.4C485.9 108.9 506.1 108.9 518.6 121.4V121.4zM166.6 166.6L77.25 256L166.6 345.4C179.1 357.9 179.1 378.1 166.6 390.6C154.1 403.1 133.9 403.1 121.4 390.6L9.372 278.6C-3.124 266.1-3.124 245.9 9.372 233.4L121.4 121.4C133.9 108.9 154.1 108.9 166.6 121.4C179.1 133.9 179.1 154.1 166.6 166.6V166.6z"></path>
    </symbol>
    <symbol aria-hidden="true" focusable="false" role="img" xmlns="http://www.w3.org/2000/svg"  viewBox="0 0 24 24" id="icon-responsive">
      <path d="M4,6V16H9V12A2,2 0 0,1 11,10H16A2,2 0 0,1 18,12V16H20V6H4M0,20V18H4A2,2 0 0,1 2,16V6A2,2 0 0,1 4,4H20A2,2 0 0,1 22,6V16A2,2 0 0,1 20,18H24V20H18V20C18,21.11 17.1,22 16,22H11A2,2 0 0,1 9,20H9L0,20M11.5,20A0.5,0.5 0 0,0 11,20.5A0.5,0.5 0 0,0 11.5,21A0.5,0.5 0 0,0 12,20.5A0.5,0.5 0 0,0 11.5,20M15.5,20A0.5,0.5 0 0,0 15,20.5A0.5,0.5 0 0,0 15.5,21A0.5,0.5 0 0,0 16,20.5A0.5,0.5 0 0,0 15.5,20M13,20V21H14V20H13M11,12V19H16V12H11Z"></path>
    </symbol>
    <symbol aria-hidden="true" focusable="false" role="img" xmlns="http://www.w3.org/2000/svg"  viewBox="0 0 512 512" id="icon-palette">
     <path d="M512 255.1C512 256.9 511.1 257.8 511.1 258.7C511.6 295.2 478.4 319.1 441.9 319.1H344C317.5 319.1 296 341.5 296 368C296 371.4 296.4 374.7 297 377.9C299.2 388.1 303.5 397.1 307.9 407.8C313.9 421.6 320 435.3 320 449.8C320 481.7 298.4 510.5 266.6 511.8C263.1 511.9 259.5 512 256 512C114.6 512 0 397.4 0 256C0 114.6 114.6 0 256 0C397.4 0 512 114.6 512 256V255.1zM96 255.1C78.33 255.1 64 270.3 64 287.1C64 305.7 78.33 319.1 96 319.1C113.7 319.1 128 305.7 128 287.1C128 270.3 113.7 255.1 96 255.1zM128 191.1C145.7 191.1 160 177.7 160 159.1C160 142.3 145.7 127.1 128 127.1C110.3 127.1 96 142.3 96 159.1C96 177.7 110.3 191.1 128 191.1zM256 63.1C238.3 63.1 224 78.33 224 95.1C224 113.7 238.3 127.1 256 127.1C273.7 127.1 288 113.7 288 95.1C288 78.33 273.7 63.1 256 63.1zM384 191.1C401.7 191.1 416 177.7 416 159.1C416 142.3 401.7 127.1 384 127.1C366.3 127.1 352 142.3 352 159.1C352 177.7 366.3 191.1 384 191.1z"/>
    </symbol>
    <symbol aria-hidden="true" focusable="false" role="img" xmlns="http://www.w3.org/2000/svg" viewBox="0 0 384 512" id="icon-open">
      <path d="M192 384c-8.188 0-16.38-3.125-22.62-9.375l-160-160c-12.5-12.5-12.5-32.75 0-45.25s32.75-12.5 45.25 0L192 306.8l137.4-137.4c12.5-12.5 32.75-12.5 45.25 0s12.5 32.75 0 45.25l-160 160C208.4 380.9 200.2 384 192 384z"></path>
    </symbol>
  
  <!-- answers page -->
    <symbol aria-hidden="true" focusable="false" role="img" xmlns="http://www.w3.org/2000/svg" viewBox="0 0 24 24" id="icon-verified">
      <path d="M23,12L20.56,9.22L20.9,5.54L17.29,4.72L15.4,1.54L12,3L8.6,1.54L6.71,4.72L3.1,5.53L3.44,9.21L1,12L3.44,14.78L3.1,18.47L6.71,19.29L8.6,22.47L12,21L15.4,22.46L17.29,19.28L20.9,18.46L20.56,14.78L23,12M10,17L6,13L7.41,11.59L10,14.17L16.59,7.58L18,9L10,17Z"></path>
    </symbol>
    <symbol aria-hidden="true" focusable="false" role="img" xmlns="http://www.w3.org/2000/svg" viewBox="0 0 512 512" id="icon-danger">
      <path d="M506.3 417l-213.3-364c-16.33-28-57.54-28-73.98 0l-213.2 364C-10.59 444.9 9.849 480 42.74 480h426.6C502.1 480 522.6 445 506.3 417zM232 168c0-13.25 10.75-24 24-24S280 154.8 280 168v128c0 13.25-10.75 24-23.1 24S232 309.3 232 296V168zM256 416c-17.36 0-31.44-14.08-31.44-31.44c0-17.36 14.07-31.44 31.44-31.44s31.44 14.08 31.44 31.44C287.4 401.9 273.4 416 256 416z"></path>
    </symbol>
    <symbol aria-hidden="true" focusable="false" role="img" xmlns="http://www.w3.org/2000/svg" viewBox="0 0 24 24" id="icon-eye">
      <path d="M12,9A3,3 0 0,1 15,12A3,3 0 0,1 12,15A3,3 0 0,1 9,12A3,3 0 0,1 12,9M12,4.5C17,4.5 21.27,7.61 23,12C21.27,16.39 17,19.5 12,19.5C7,19.5 2.73,16.39 1,12C2.73,7.61 7,4.5 12,4.5M3.18,12C4.83,15.36 8.24,17.5 12,17.5C15.76,17.5 19.17,15.36 20.82,12C19.17,8.64 15.76,6.5 12,6.5C8.24,6.5 4.83,8.64 3.18,12Z"></path>
    </symbol>
    <symbol aria-hidden="true" focusable="false" role="img" xmlns="http://www.w3.org/2000/svg" viewBox="0 0 24 24" id="icon-arrow-up">
      <path d="M15,20H9V12H4.16L12,4.16L19.84,12H15V20Z"></path>
    </symbol>
    <symbol aria-hidden="true" focusable="false" role="img" xmlns="http://www.w3.org/2000/svg" viewBox="0 0 24 24" id="icon-comments">
      <path d="M12,23A1,1 0 0,1 11,22V19H7A2,2 0 0,1 5,17V7C5,5.89 5.9,5 7,5H21A2,2 0 0,1 23,7V17A2,2 0 0,1 21,19H16.9L13.2,22.71C13,22.9 12.75,23 12.5,23V23H12M13,17V20.08L16.08,17H21V7H7V17H13M3,15H1V3A2,2 0 0,1 3,1H19V3H3V15Z"></path>
    </symbol>
    <symbol aria-hidden="true" focusable="false" role="img" xmlns="http://www.w3.org/2000/svg" viewBox="0 0 24 24" id="icon-share">
      <path d="M12 2C6.5 2 2 6.5 2 12S6.5 22 12 22 22 17.5 22 12 17.5 2 12 2M14 16V13C10.39 13 7.81 14.43 6 17C6.72 13.33 8.94 9.73 14 9V6L19 11L14 16Z"></path>
    </symbol>
    <symbol aria-hidden="true" focusable="false" role="img" xmlns="http://www.w3.org/2000/svg" viewBox="0 0 24 24" id="icon-clock">
      <path d="M12 2C6.5 2 2 6.5 2 12C2 17.5 6.5 22 12 22C17.5 22 22 17.5 22 12S17.5 2 12 2M16.3 15.2L11 12.3V7H12.5V11.4L17 13.9L16.3 15.2Z"></path>
    </symbol>
    <symbol aria-hidden="true" focusable="false" role="img" xmlns="http://www.w3.org/2000/svg" viewBox="0 0 24 24" id="icon-clock-edit">
      <path d="M21 13.1C20.9 13.1 20.7 13.2 20.6 13.3L19.6 14.3L21.7 16.4L22.7 15.4C22.9 15.2 22.9 14.8 22.7 14.6L21.4 13.3C21.3 13.2 21.2 13.1 21 13.1M19.1 14.9L13 20.9V23H15.1L21.2 16.9L19.1 14.9M11 21.9C5.9 21.4 2 17.1 2 12C2 6.5 6.5 2 12 2C17.3 2 21.6 6.1 22 11.3C21.7 11.2 21.4 11.1 21 11.1C20.2 11.1 19.6 11.5 19.2 11.9L16.5 14.6L12.5 12.2V7H11V13L15.4 15.7L11 20.1V21.9Z"></path>
    </symbol>
    <symbol aria-hidden="true" focusable="false" role="img" xmlns="http://www.w3.org/2000/svg" viewBox="0 0 448 512" id="icon-user">
      <path d="M224 256c70.7 0 128-57.31 128-128s-57.3-128-128-128C153.3 0 96 57.31 96 128S153.3 256 224 256zM274.7 304H173.3C77.61 304 0 381.6 0 477.3c0 19.14 15.52 34.67 34.66 34.67h378.7C432.5 512 448 496.5 448 477.3C448 381.6 370.4 304 274.7 304z"></path>
    </symbol>
    <symbol aria-hidden="true" focusable="false" role="img" xmlns="http://www.w3.org/2000/svg" viewBox="0 0 320 512" id="icon-question">
      <path d="M204.3 32.01H96c-52.94 0-96 43.06-96 96c0 17.67 14.31 31.1 32 31.1s32-14.32 32-31.1c0-17.64 14.34-32 32-32h108.3C232.8 96.01 256 119.2 256 147.8c0 19.72-10.97 37.47-30.5 47.33L127.8 252.4C117.1 258.2 112 268.7 112 280v40c0 17.67 14.31 31.99 32 31.99s32-14.32 32-31.99V298.3L256 251.3c39.47-19.75 64-59.42 64-103.5C320 83.95 268.1 32.01 204.3 32.01zM144 400c-22.09 0-40 17.91-40 40s17.91 39.1 40 39.1s40-17.9 40-39.1S166.1 400 144 400z"></path>
    </symbol>
    <symbol aria-hidden="true" focusable="false" role="img" xmlns="http://www.w3.org/2000/svg" viewBox="0 0 24 24" id="icon-user-clock">
      <path d="M10.63,14.1C12.23,10.58 16.38,9.03 19.9,10.63C23.42,12.23 24.97,16.38 23.37,19.9C22.24,22.4 19.75,24 17,24C14.3,24 11.83,22.44 10.67,20H1V18C1.06,16.86 1.84,15.93 3.34,15.18C4.84,14.43 6.72,14.04 9,14C9.57,14 10.11,14.05 10.63,14.1V14.1M9,4C10.12,4.03 11.06,4.42 11.81,5.17C12.56,5.92 12.93,6.86 12.93,8C12.93,9.14 12.56,10.08 11.81,10.83C11.06,11.58 10.12,11.95 9,11.95C7.88,11.95 6.94,11.58 6.19,10.83C5.44,10.08 5.07,9.14 5.07,8C5.07,6.86 5.44,5.92 6.19,5.17C6.94,4.42 7.88,4.03 9,4M17,22A5,5 0 0,0 22,17A5,5 0 0,0 17,12A5,5 0 0,0 12,17A5,5 0 0,0 17,22M16,14H17.5V16.82L19.94,18.23L19.19,19.53L16,17.69V14Z"></path>
    </symbol>
    <symbol aria-hidden="true" focusable="false" role="img" xmlns="http://www.w3.org/2000/svg" viewBox="0 0 24 24" id="icon-users">
      <path d="M16 17V19H2V17S2 13 9 13 16 17 16 17M12.5 7.5A3.5 3.5 0 1 0 9 11A3.5 3.5 0 0 0 12.5 7.5M15.94 13A5.32 5.32 0 0 1 18 17V19H22V17S22 13.37 15.94 13M15 4A3.39 3.39 0 0 0 13.07 4.59A5 5 0 0 1 13.07 10.41A3.39 3.39 0 0 0 15 11A3.5 3.5 0 0 0 15 4Z"></path>
    </symbol>
    <symbol aria-hidden="true" focusable="false" role="img" xmlns="http://www.w3.org/2000/svg" viewBox="0 0 24 24" id="icon-answers">
      <path d="M16,15H9V13H16M19,11H9V9H19M19,7H9V5H19M21,1H7C5.89,1 5,1.89 5,3V17C5,18.11 5.9,19 7,19H21C22.11,19 23,18.11 23,17V3C23,1.89 22.1,1 21,1M3,5V21H19V23H3A2,2 0 0,1 1,21V5H3Z"></path>
    </symbol>
    <symbol aria-hidden="true" focusable="false" role="img" xmlns="http://www.w3.org/2000/svg" viewBox="0 0 24 24" id="icon-post">
      <path d="M3 3V21H21V3H3M18 18H6V17H18V18M18 16H6V15H18V16M18 12H6V6H18V12Z"></path>
    </symbol>
    <symbol aria-hidden="true" focusable="false" role="img" xmlns="http://www.w3.org/2000/svg" viewBox="0 0 24 24" id="icon-pen">
      <path d="M15.54,3.5L20.5,8.47L19.07,9.88L14.12,4.93L15.54,3.5M3.5,19.78L10,13.31C9.9,13 9.97,12.61 10.23,12.35C10.62,11.96 11.26,11.96 11.65,12.35C12.04,12.75 12.04,13.38 11.65,13.77C11.39,14.03 11,14.1 10.69,14L4.22,20.5L14.83,16.95L18.36,10.59L13.42,5.64L7.05,9.17L3.5,19.78Z"></path>
    </symbol>
    <symbol aria-hidden="true" focusable="false" role="img" xmlns="http://www.w3.org/2000/svg" viewBox="0 0 24 24" id="icon-twitter">
      <path d="M22.46,6C21.69,6.35 20.86,6.58 20,6.69C20.88,6.16 21.56,5.32 21.88,4.31C21.05,4.81 20.13,5.16 19.16,5.36C18.37,4.5 17.26,4 16,4C13.65,4 11.73,5.92 11.73,8.29C11.73,8.63 11.77,8.96 11.84,9.27C8.28,9.09 5.11,7.38 3,4.79C2.63,5.42 2.42,6.16 2.42,6.94C2.42,8.43 3.17,9.75 4.33,10.5C3.62,10.5 2.96,10.3 2.38,10C2.38,10 2.38,10 2.38,10.03C2.38,12.11 3.86,13.85 5.82,14.24C5.46,14.34 5.08,14.39 4.69,14.39C4.42,14.39 4.15,14.36 3.89,14.31C4.43,16 6,17.26 7.89,17.29C6.43,18.45 4.58,19.13 2.56,19.13C2.22,19.13 1.88,19.11 1.54,19.07C3.44,20.29 5.7,21 8.12,21C16,21 20.33,14.46 20.33,8.79C20.33,8.6 20.33,8.42 20.32,8.23C21.16,7.63 21.88,6.87 22.46,6Z"></path>
    </symbol>
    <symbol aria-hidden="true" focusable="false" role="img" xmlns="http://www.w3.org/2000/svg" viewBox="0 0 24 24" id="icon-briefcase">
      <path d="M10,2H14A2,2 0 0,1 16,4V6H20A2,2 0 0,1 22,8V19A2,2 0 0,1 20,21H4C2.89,21 2,20.1 2,19V8C2,6.89 2.89,6 4,6H8V4C8,2.89 8.89,2 10,2M14,6V4H10V6H14Z"></path>
    </symbol>
    <symbol aria-hidden="true" focusable="false" role="img" xmlns="http://www.w3.org/2000/svg" viewBox="0 0 24 24" id="icon-degree">
      <path d="M12,3L1,9L12,15L21,10.09V17H23V9M5,13.18V17.18L12,21L19,17.18V13.18L12,17L5,13.18Z"></path>
    </symbol>
    <symbol aria-hidden="true" focusable="false" role="img" xmlns="http://www.w3.org/2000/svg" viewBox="0 0 24 24" id="icon-location">
      <path d="M12,11.5A2.5,2.5 0 0,1 9.5,9A2.5,2.5 0 0,1 12,6.5A2.5,2.5 0 0,1 14.5,9A2.5,2.5 0 0,1 12,11.5M12,2A7,7 0 0,0 5,9C5,14.25 12,22 12,22C12,22 19,14.25 19,9A7,7 0 0,0 12,2Z"></path>
    </symbol>
    <symbol aria-hidden="true" focusable="false" role="img" xmlns="http://www.w3.org/2000/svg" viewBox="0 0 24 24" id="icon-globe">
      <path d="M16.36,14C16.44,13.34 16.5,12.68 16.5,12C16.5,11.32 16.44,10.66 16.36,10H19.74C19.9,10.64 20,11.31 20,12C20,12.69 19.9,13.36 19.74,14M14.59,19.56C15.19,18.45 15.65,17.25 15.97,16H18.92C17.96,17.65 16.43,18.93 14.59,19.56M14.34,14H9.66C9.56,13.34 9.5,12.68 9.5,12C9.5,11.32 9.56,10.65 9.66,10H14.34C14.43,10.65 14.5,11.32 14.5,12C14.5,12.68 14.43,13.34 14.34,14M12,19.96C11.17,18.76 10.5,17.43 10.09,16H13.91C13.5,17.43 12.83,18.76 12,19.96M8,8H5.08C6.03,6.34 7.57,5.06 9.4,4.44C8.8,5.55 8.35,6.75 8,8M5.08,16H8C8.35,17.25 8.8,18.45 9.4,19.56C7.57,18.93 6.03,17.65 5.08,16M4.26,14C4.1,13.36 4,12.69 4,12C4,11.31 4.1,10.64 4.26,10H7.64C7.56,10.66 7.5,11.32 7.5,12C7.5,12.68 7.56,13.34 7.64,14M12,4.03C12.83,5.23 13.5,6.57 13.91,8H10.09C10.5,6.57 11.17,5.23 12,4.03M18.92,8H15.97C15.65,6.75 15.19,5.55 14.59,4.44C16.43,5.07 17.96,6.34 18.92,8M12,2C6.47,2 2,6.5 2,12A10,10 0 0,0 12,22A10,10 0 0,0 22,12A10,10 0 0,0 12,2Z"></path>
    </symbol>
    <symbol aria-hidden="true" focusable="false" role="img" xmlns="http://www.w3.org/2000/svg" viewBox="0 0 24 24" id="icon-flower">
      <path d="M3,13A9,9 0 0,0 12,22C12,17 7.97,13 3,13M12,5.5A2.5,2.5 0 0,1 14.5,8A2.5,2.5 0 0,1 12,10.5A2.5,2.5 0 0,1 9.5,8A2.5,2.5 0 0,1 12,5.5M5.6,10.25A2.5,2.5 0 0,0 8.1,12.75C8.63,12.75 9.12,12.58 9.5,12.31C9.5,12.37 9.5,12.43 9.5,12.5A2.5,2.5 0 0,0 12,15A2.5,2.5 0 0,0 14.5,12.5C14.5,12.43 14.5,12.37 14.5,12.31C14.88,12.58 15.37,12.75 15.9,12.75C17.28,12.75 18.4,11.63 18.4,10.25C18.4,9.25 17.81,8.4 16.97,8C17.81,7.6 18.4,6.74 18.4,5.75C18.4,4.37 17.28,3.25 15.9,3.25C15.37,3.25 14.88,3.41 14.5,3.69C14.5,3.63 14.5,3.56 14.5,3.5A2.5,2.5 0 0,0 12,1A2.5,2.5 0 0,0 9.5,3.5C9.5,3.56 9.5,3.63 9.5,3.69C9.12,3.41 8.63,3.25 8.1,3.25A2.5,2.5 0 0,0 5.6,5.75C5.6,6.74 6.19,7.6 7.03,8C6.19,8.4 5.6,9.25 5.6,10.25M12,22A9,9 0 0,0 21,13C16,13 12,17 12,22Z"></path>
    </symbol>
    <symbol aria-hidden="true" focusable="false" role="img" xmlns="http://www.w3.org/2000/svg" viewBox="0 0 24 24" id="icon-user-remove">
      <path d="M15,14C17.67,14 23,15.33 23,18V20H7V18C7,15.33 12.33,14 15,14M15,12A4,4 0 0,1 11,8A4,4 0 0,1 15,4A4,4 0 0,1 19,8A4,4 0 0,1 15,12M5,9.59L7.12,7.46L8.54,8.88L6.41,11L8.54,13.12L7.12,14.54L5,12.41L2.88,14.54L1.46,13.12L3.59,11L1.46,8.88L2.88,7.46L5,9.59Z"></path>
    </symbol>
    <symbol aria-hidden="true" focusable="false" role="img" xmlns="http://www.w3.org/2000/svg" viewBox="0 0 24 24" id="icon-quoraplus">
      <path d="M12,1L9,9L1,12L9,15L12,23L15,15L23,12L15,9L12,1Z"></path>
    </symbol>
    <symbol aria-hidden="true" focusable="false" role="img" xmlns="http://www.w3.org/2000/svg" viewBox="0 0 24 24" id="icon-search">
      <path d="M9.5,3A6.5,6.5 0 0,1 16,9.5C16,11.11 15.41,12.59 14.44,13.73L14.71,14H15.5L20.5,19L19,20.5L14,15.5V14.71L13.73,14.44C12.59,15.41 11.11,16 9.5,16A6.5,6.5 0 0,1 3,9.5A6.5,6.5 0 0,1 9.5,3M9.5,5C7,5 5,7 5,9.5C5,12 7,14 9.5,14C12,14 14,12 14,9.5C14,7 12,5 9.5,5Z"></path>
    </symbol>
    <symbol aria-hidden="true" focusable="false" role="img" xmlns="http://www.w3.org/2000/svg" viewBox="0 0 24 24" id="icon-cross">
      <path d="M13.46,12L19,17.54V19H17.54L12,13.46L6.46,19H5V17.54L10.54,12L5,6.46V5H6.46L12,10.54L17.54,5H19V6.46L13.46,12Z"></path>
    </symbol>

<!-- not yet used -->
  <symbol aria-hidden="true" focusable="false" role="img" xmlns="http://www.w3.org/2000/svg" viewBox="0 0 512 512" id="icon-cancel">
    <path d="M256 0C114.6 0 0 114.6 0 256s114.6 256 256 256s256-114.6 256-256S397.4 0 256 0zM64 256c0-41.4 13.3-79.68 35.68-111.1l267.4 267.4C335.7 434.7 297.4 448 256 448C150.1 448 64 361.9 64 256zM412.3 367.1L144.9 99.68C176.3 77.3 214.6 64 256 64c105.9 0 192 86.13 192 192C448 297.4 434.7 335.7 412.3 367.1z"></path>
  </symbol>
  <symbol aria-hidden="true" focusable="false" role="img" xmlns="http://www.w3.org/2000/svg" viewBox="0 0 384 512" id="icon-code-document">
    <path d="M162.1 257.8c-7.812-7.812-20.47-7.812-28.28 0l-48 48c-7.812 7.812-7.812 20.5 0 28.31l48 48C137.8 386.1 142.9 388 148 388s10.23-1.938 14.14-5.844c7.812-7.812 7.812-20.5 0-28.31L128.3 320l33.86-33.84C169.1 278.3 169.1 265.7 162.1 257.8zM365.3 93.38l-74.63-74.64C278.6 6.742 262.3 0 245.4 0H64C28.65 0 0 28.65 0 64l.0065 384c0 35.34 28.65 64 64 64H320c35.2 0 64-28.8 64-64V138.6C384 121.7 377.3 105.4 365.3 93.38zM336 448c0 8.836-7.164 16-16 16H64.02c-8.838 0-16-7.164-16-16L48 64.13c0-8.836 7.164-16 16-16h160L224 128c0 17.67 14.33 32 32 32h79.1V448zM221.9 257.8c-7.812 7.812-7.812 20.5 0 28.31L255.7 320l-33.86 33.84c-7.812 7.812-7.812 20.5 0 28.31C225.8 386.1 230.9 388 236 388s10.23-1.938 14.14-5.844l48-48c7.812-7.812 7.812-20.5 0-28.31l-48-48C242.3 250 229.7 250 221.9 257.8z"></path>
  </symbol>
  <symbol aria-hidden="true" focusable="false" role="img" xmlns="http://www.w3.org/2000/svg" viewBox="0 0 640 512" id="icon-computer-home">
    <path d="M218.3 8.486C230.6-2.829 249.4-2.829 261.7 8.486L469.7 200.5C476.4 206.7 480 215.2 480 224H336C316.9 224 299.7 232.4 288 245.7V208C288 199.2 280.8 192 272 192H208C199.2 192 192 199.2 192 208V272C192 280.8 199.2 288 208 288H271.1V416H112C85.49 416 64 394.5 64 368V256H32C18.83 256 6.996 247.9 2.198 235.7C-2.6 223.4 .6145 209.4 10.3 200.5L218.3 8.486zM336 256H560C577.7 256 592 270.3 592 288V448H624C632.8 448 640 455.2 640 464C640 490.5 618.5 512 592 512H303.1C277.5 512 255.1 490.5 255.1 464C255.1 455.2 263.2 448 271.1 448H303.1V288C303.1 270.3 318.3 256 336 256zM352 304V448H544V304H352z"></path>
  </symbol>
  <symbol aria-hidden="true" focusable="false" role="img" xmlns="http://www.w3.org/2000/svg" viewBox="0 0 640 512" id="icon-link-slash">
    <path d="M485.1 354.9l113.5-113.5c55.21-55.21 55.21-144.7 0-199.9C570.1 13.8 534.8 0 498.6 0s-72.36 13.8-99.96 41.41l-43.36 43.36c15.11 8.012 29.47 17.58 41.91 30.02c3.146 3.146 5.898 6.518 8.742 9.838l37.96-37.96C458.5 72.05 477.1 64 498.6 64s40.1 8.047 54.71 22.66c14.61 14.61 22.66 34.04 22.66 54.71s-8.049 40.1-22.66 54.71l-119 119l-30.09-23.59c21.49-51.28 12.12-112.4-29.63-154.1C346.1 109.8 310.8 96 274.6 96c-29.6 0-58.93 9.752-83.83 28.23L38.81 5.109C34.41 1.672 29.19 0 24.03 0c-7.125 0-14.19 3.156-18.91 9.187c-8.188 10.44-6.375 25.53 4.062 33.7l591.1 463.1c10.5 8.203 25.56 6.328 33.69-4.078c8.188-10.44 6.375-25.53-4.062-33.7L485.1 354.9zM350.8 249.6L244.3 166.2C253.8 162.2 264 160 274.6 160c20.67 0 40.1 8.049 54.71 22.66c14.62 14.61 22.66 34.04 22.66 54.71C352 241.5 351.4 245.6 350.8 249.6zM234 387.4l-37.96 37.96C181.5 439.1 162 448 141.4 448c-20.67 0-40.1-8.047-54.71-22.66c-14.61-14.61-22.66-34.04-22.66-54.71s8.049-40.1 22.66-54.71l84.83-84.83L120.7 191.3L41.41 270.7c-55.21 55.21-55.21 144.7 0 199.9C69.01 498.2 105.2 512 141.4 512c36.18 0 72.36-13.8 99.96-41.41l43.36-43.36c-15.11-8.012-29.47-17.58-41.91-30.02C239.6 394.1 236.9 390.7 234 387.4zM265.4 374.6C293 402.2 329.2 416 365.4 416c11.98 0 23.84-2.082 35.51-5.111L224.6 272.7C223.9 309.5 237.3 346.5 265.4 374.6z"></path>
  </symbol>
  <symbol aria-hidden="true" focusable="false" role="img" xmlns="http://www.w3.org/2000/svg" viewBox="0 0 640 512" id="icon-eye-slash">
    <path d="M320 400c-75.85 0-137.25-58.71-142.9-133.11L72.2 185.82c-13.79 17.3-26.48 35.59-36.72 55.59a32.35 32.35 0 0 0 0 29.19C89.71 376.41 197.07 448 320 448c26.91 0 52.87-4 77.89-10.46L346 397.39a144.13 144.13 0 0 1-26 2.61zm313.82 58.1l-110.55-85.44a331.25 331.25 0 0 0 81.25-102.07 32.35 32.35 0 0 0 0-29.19C550.29 135.59 442.93 64 320 64a308.15 308.15 0 0 0-147.32 37.7L45.46 3.37A16 16 0 0 0 23 6.18L3.37 31.45A16 16 0 0 0 6.18 53.9l588.36 454.73a16 16 0 0 0 22.46-2.81l19.64-25.27a16 16 0 0 0-2.82-22.45zm-183.72-142l-39.3-30.38A94.75 94.75 0 0 0 416 256a94.76 94.76 0 0 0-121.31-92.21A47.65 47.65 0 0 1 304 192a46.64 46.64 0 0 1-1.54 10l-73.61-56.89A142.31 142.31 0 0 1 320 112a143.92 143.92 0 0 1 144 144c0 21.63-5.29 41.79-13.9 60.11z"></path>
  </symbol>
  <symbol aria-hidden="true" focusable="false" role="img" xmlns="http://www.w3.org/2000/svg" viewBox="0 0 512 512" id="icon-feather">
    <path d="M483.4 244.2L351.9 287.1h97.74c-9.874 10.62 3.75-3.125-46.24 46.87l-147.6 49.12h98.24c-74.99 73.12-194.6 70.62-246.8 54.1l-66.14 65.99c-9.374 9.374-24.6 9.374-33.98 0s-9.374-24.6 0-33.98l259.5-259.2c6.249-6.25 6.249-16.37 0-22.62c-6.249-6.249-16.37-6.249-22.62 0l-178.4 178.2C58.78 306.1 68.61 216.7 129.1 156.3l85.74-85.68c90.62-90.62 189.8-88.27 252.3-25.78C517.8 95.34 528.9 169.7 483.4 244.2z"></path>
  </symbol>
  <symbol aria-hidden="true" focusable="false" role="img" xmlns="http://www.w3.org/2000/svg" viewBox="0 0 512 512" id="icon-fast-forward">
    <path d="M52.51 440.6l171.5-142.9V214.3L52.51 71.41C31.88 54.28 0 68.66 0 96.03v319.9C0 443.3 31.88 457.7 52.51 440.6zM308.5 440.6l192-159.1c15.25-12.87 15.25-36.37 0-49.24l-192-159.1c-20.63-17.12-52.51-2.749-52.51 24.62v319.9C256 443.3 287.9 457.7 308.5 440.6z"></path>
  </symbol>
  <symbol aria-hidden="true" focusable="false" role="img" xmlns="http://www.w3.org/2000/svg" viewBox="0 0 512 512" id="icon-graph-rising">
    <path d="M472 432h-48a24 24 0 01-24-24V104a24 24 0 0124-24h48a24 24 0 0124 24v304a24 24 0 01-24 24zM344 432h-48a24 24 0 01-24-24V184a24 24 0 0124-24h48a24 24 0 0124 24v224a24 24 0 01-24 24zM216 432h-48a24 24 0 01-24-24V248a24 24 0 0124-24h48a24 24 0 0124 24v160a24 24 0 01-24 24zM88 432H40a24 24 0 01-24-24v-96a24 24 0 0124-24h48a24 24 0 0124 24v96a24 24 0 01-24 24z"></path>
  </symbol>
  <symbol aria-hidden="true" focusable="false" role="img" xmlns="http://www.w3.org/2000/svg" viewBox="0 0 576 512" id="icon-rating">
    <path d="M259.3 17.8L194 150.2 47.9 171.5c-26.2 3.8-36.7 36.1-17.7 54.6l105.7 103-25 145.5c-4.5 26.3 23.2 46 46.4 33.7L288 439.6l130.7 68.7c23.2 12.2 50.9-7.4 46.4-33.7l-25-145.5 105.7-103c19-18.5 8.5-50.8-17.7-54.6L382 150.2 316.7 17.8c-11.7-23.6-45.6-23.9-57.4 0z"></path>
  </symbol>
  <symbol aria-hidden="true" focusable="false" role="img" xmlns="http://www.w3.org/2000/svg" viewBox="0 0 512 512" id="icon-rewind">
    <path d="M459.5 71.41l-171.5 142.9v83.45l171.5 142.9C480.1 457.7 512 443.3 512 415.1V96.03C512 68.66 480.1 54.28 459.5 71.41zM203.5 71.41L11.44 231.4c-15.25 12.87-15.25 36.37 0 49.24l192 159.1c20.63 17.12 52.51 2.749 52.51-24.62v-319.9C255.1 68.66 224.1 54.28 203.5 71.41z"></path>
  </symbol>
  <symbol aria-hidden="true" focusable="false" role="img" xmlns="http://www.w3.org/2000/svg" viewBox="0 0 24 24" id="icon-like-dislike">
    <path d="M22.5,10H15.75C15.13,10 14.6,10.38 14.37,10.91L12.11,16.2C12.04,16.37 12,16.56 12,16.75V18A1,1 0 0,0 13,19H18.18L17.5,22.18V22.42C17.5,22.73 17.63,23 17.83,23.22L18.62,24L23.56,19.06C23.83,18.79 24,18.41 24,18V11.5A1.5,1.5 0 0,0 22.5,10M12,6A1,1 0 0,0 11,5H5.82L6.5,1.82V1.59C6.5,1.28 6.37,1 6.17,0.79L5.38,0L0.44,4.94C0.17,5.21 0,5.59 0,6V12.5A1.5,1.5 0 0,0 1.5,14H8.25C8.87,14 9.4,13.62 9.63,13.09L11.89,7.8C11.96,7.63 12,7.44 12,7.25V6Z"></path>
  </symbol>
  <symbol aria-hidden="true" focusable="false" role="img" xmlns="http://www.w3.org/2000/svg" viewBox="0 0 640 512" id="icon-person-slash">
    <path d="M95.1 477.3c0 19.14 15.52 34.67 34.66 34.67h378.7c5.625 0 10.73-1.65 15.42-4.029L264.9 304.3C171.3 306.7 95.1 383.1 95.1 477.3zM630.8 469.1l-277.1-217.9c54.69-14.56 95.18-63.95 95.18-123.2C447.1 57.31 390.7 0 319.1 0C250.2 0 193.7 55.93 192.3 125.4l-153.4-120.3C34.41 1.672 29.19 0 24.03 0C16.91 0 9.845 3.156 5.127 9.187c-8.187 10.44-6.375 25.53 4.062 33.7L601.2 506.9c10.5 8.203 25.56 6.328 33.69-4.078C643.1 492.4 641.2 477.3 630.8 469.1z"></path>
  </symbol>
  <symbol aria-hidden="true" focusable="false" role="img" xmlns="http://www.w3.org/2000/svg"  viewBox="0 0 24 24" id="icon-image-slash">
    <path d="M21 17.2L6.8 3H19C20.1 3 21 3.9 21 5V17.2M20.7 22L19.7 21H5C3.9 21 3 20.1 3 19V4.3L2 3.3L3.3 2L22 20.7L20.7 22M16.8 18L12.9 14.1L11 16.5L8.5 13.5L5 18H16.8Z"></path>
  </symbol>

  <symbol aria-hidden="true" focusable="false" role="img" xmlns="http://www.w3.org/2000/svg"  viewBox="0 0 24 24" id="icon-legal">
    <path d="M12,3C10.73,3 9.6,3.8 9.18,5H3V7H4.95L2,14C1.53,16 3,17 5.5,17C8,17 9.56,16 9,14L6.05,7H9.17C9.5,7.85 10.15,8.5 11,8.83V20H2V22H22V20H13V8.82C13.85,8.5 14.5,7.85 14.82,7H17.95L15,14C14.53,16 16,17 18.5,17C21,17 22.56,16 22,14L19.05,7H21V5H14.83C14.4,3.8 13.27,3 12,3M12,5A1,1 0 0,1 13,6A1,1 0 0,1 12,7A1,1 0 0,1 11,6A1,1 0 0,1 12,5M5.5,10.25L7,14H4L5.5,10.25M18.5,10.25L20,14H17L18.5,10.25Z"></path>
  </symbol>
  <symbol aria-hidden="true" focusable="false" role="img" xmlns="http://www.w3.org/2000/svg"  viewBox="0 0 24 24" id="icon-code-block">
    <path d="M5,3H7V5H5V10A2,2 0 0,1 3,12A2,2 0 0,1 5,14V19H7V21H5C3.93,20.73 3,20.1 3,19V15A2,2 0 0,0 1,13H0V11H1A2,2 0 0,0 3,9V5A2,2 0 0,1 5,3M19,3A2,2 0 0,1 21,5V9A2,2 0 0,0 23,11H24V13H23A2,2 0 0,0 21,15V19A2,2 0 0,1 19,21H17V19H19V14A2,2 0 0,1 21,12A2,2 0 0,1 19,10V5H17V3H19M12,15A1,1 0 0,1 13,16A1,1 0 0,1 12,17A1,1 0 0,1 11,16A1,1 0 0,1 12,15M8,15A1,1 0 0,1 9,16A1,1 0 0,1 8,17A1,1 0 0,1 7,16A1,1 0 0,1 8,15M16,15A1,1 0 0,1 17,16A1,1 0 0,1 16,17A1,1 0 0,1 15,16A1,1 0 0,1 16,15Z"></path>
  </symbol>
  <symbol aria-hidden="true" focusable="false" role="img" xmlns="http://www.w3.org/2000/svg"  viewBox="0 0 24 24" id="icon-ads-slash">
    <path d="M12.2 9L10.2 7H13C14.1 7 15 7.9 15 9V11.8L13 9.8V9H12.2M23 9V7H19C17.9 7 17 7.9 17 9V11C17 12.1 17.9 13 19 13H21V15H18.2L20.2 17H21C22.1 17 23 16.1 23 15V13C23 11.9 22.1 11 21 11H19V9H23M22.1 21.5L20.8 22.8L14.4 16.4C14.1 16.7 13.6 17 13 17H9V10.9L7 8.9V17H5V13H3V17H1V9C1 7.9 1.9 7 3 7H5.1L1.1 3L2.4 1.7L22.1 21.5M5 9H3V11H5V9M13 14.9L11 12.9V15H13V14.9Z"></path>
  </symbol>
</svg>