<?xml version="1.0" standalone="no"?>
<!DOCTYPE svg PUBLIC "-//W3C//DTD SVG 20010904//EN"
 "http://www.w3.org/TR/2001/REC-SVG-20010904/DTD/svg10.dtd">
<svg version="1.0" xmlns="http://www.w3.org/2000/svg"
 width="1158.000000pt" height="1158.000000pt" viewBox="0 0 1158.000000 1158.000000"
 preserveAspectRatio="xMidYMid meet">
<metadata>
Created by potrace 1.14, written by Peter Selinger 2001-2017
</metadata>
<g transform="translate(0.000000,1158.000000) scale(0.100000,-0.100000)"
fill="#000000" stroke="none">
<path d="M3278 10395 c-1 -1 -41 -5 -88 -9 -105 -8 -150 -13 -265 -31 -93 -15
-102 -17 -195 -36 -30 -6 -62 -13 -70 -14 -8 -2 -15 -4 -15 -5 0 -1 -11 -4
-25 -6 -14 -3 -43 -10 -65 -16 -22 -6 -42 -12 -45 -13 -182 -44 -577 -215
-747 -322 -29 -18 -54 -33 -57 -33 -16 0 -336 -225 -404 -284 -15 -13 -49 -43
-77 -66 -360 -305 -695 -762 -900 -1230 -144 -329 -255 -736 -290 -1070 -4
-36 -9 -74 -11 -84 -11 -62 -19 -243 -19 -466 0 -255 8 -405 30 -555 3 -22 8
-58 10 -80 3 -22 7 -51 10 -65 8 -39 13 -64 19 -101 3 -19 12 -65 21 -104 9
-38 18 -77 20 -85 6 -31 27 -109 56 -205 314 -1044 1057 -1880 2006 -2258 215
-85 484 -165 625 -183 27 -4 50 -10 53 -14 3 -5 -474 -186 -540 -204 -5 -2
-17 -6 -25 -9 -16 -7 -41 -15 -200 -71 -58 -20 -114 -41 -125 -46 -11 -5 -58
-23 -105 -39 -47 -16 -112 -40 -145 -52 -191 -70 -290 -224 -281 -439 9 -212
164 -399 375 -454 55 -14 178 -12 256 4 30 6 58 12 62 12 27 3 161 56 296 117
97 44 187 78 230 86 83 17 357 14 447 -4 30 -7 68 -14 85 -17 110 -19 376
-140 705 -318 354 -193 742 -344 1005 -391 68 -12 147 -25 195 -31 30 -3 66
-8 80 -9 200 -26 795 -26 839 -1 4 2 30 7 60 10 179 21 526 122 762 222 415
175 709 394 817 609 92 183 56 380 -95 529 -98 97 -206 139 -338 132 -123 -7
-218 -58 -425 -230 -297 -246 -558 -363 -880 -395 -72 -7 -328 -6 -380 2 -14
3 -52 8 -85 12 -156 19 -424 104 -680 218 -101 44 -242 111 -475 224 -389 189
-482 223 -725 263 -33 5 -64 10 -69 10 -20 0 5 12 100 46 54 20 142 52 194 71
52 19 118 42 145 52 28 10 113 41 190 69 77 28 197 65 266 81 437 103 854 302
1217 579 87 66 112 87 211 177 423 383 725 837 954 1435 55 141 139 433 153
528 3 20 9 51 14 67 5 17 11 48 14 70 42 301 43 314 52 485 11 211 6 562 -10
660 -3 14 -7 52 -10 85 -4 33 -8 71 -10 85 -10 64 -20 126 -22 140 -12 108
-80 373 -146 575 -117 358 -354 804 -575 1085 -379 482 -880 856 -1443 1078
-167 65 -434 142 -580 167 -19 3 -42 8 -50 10 -8 2 -37 6 -65 10 -27 3 -57 8
-65 10 -8 2 -46 6 -83 10 -37 3 -78 9 -90 12 -24 5 -573 14 -579 8z m442 -979
c47 -4 96 -9 110 -11 14 -2 45 -7 70 -10 37 -6 139 -26 200 -40 308 -73 679
-268 950 -501 205 -176 407 -433 555 -706 122 -227 247 -585 285 -820 5 -35
12 -72 14 -83 2 -12 7 -48 11 -80 4 -33 9 -69 11 -80 23 -123 22 -592 -1 -765
-2 -19 -7 -57 -10 -85 -5 -42 -22 -136 -41 -233 -55 -275 -178 -598 -320 -842
-144 -246 -371 -513 -568 -665 -21 -17 -48 -38 -60 -49 -51 -45 -238 -161
-354 -219 -214 -107 -461 -187 -662 -213 -30 -3 -66 -8 -80 -10 -183 -28 -571
-21 -745 12 -11 2 -33 7 -50 9 -204 36 -458 124 -655 228 -73 38 -256 155
-282 180 -7 6 -29 24 -48 38 -97 73 -262 238 -364 364 -275 340 -461 744 -550
1191 -23 116 -30 159 -41 244 -21 155 -28 611 -12 760 4 41 10 98 13 125 3 28
7 56 9 63 3 7 7 34 11 60 3 26 10 67 16 92 5 25 12 56 14 70 20 108 96 349
156 490 41 97 133 281 168 335 11 17 23 37 26 45 15 32 140 209 203 285 157
192 366 372 576 500 82 50 316 165 335 165 6 0 18 4 28 10 18 11 185 66 224
74 12 3 41 10 63 15 22 6 54 12 70 15 17 3 41 8 55 11 13 2 42 7 65 10 22 3
51 8 65 10 14 2 66 7 115 11 50 3 91 7 92 8 5 4 259 -2 333 -8z"/>
<path d="M10918 8616 c-1 -2 -52 -6 -113 -10 -119 -6 -143 -10 -250 -32 -38
-8 -79 -17 -91 -19 -11 -3 -54 -16 -95 -29 -284 -91 -542 -249 -768 -469 -145
-142 -255 -290 -354 -476 l-53 -99 0 286 c0 198 -5 304 -14 342 -31 134 -143
274 -262 330 -293 137 -629 -20 -698 -325 -13 -56 -17 -4527 -4 -4611 4 -26
17 -73 30 -105 79 -194 235 -290 463 -285 129 3 221 37 312 113 76 64 149 193
166 291 3 21 7 649 8 1397 1 748 5 1378 9 1400 3 22 8 54 11 70 3 17 7 48 11
70 41 269 188 585 381 825 247 305 627 499 937 477 100 -7 102 -8 272 -58 202
-59 249 -68 349 -66 77 2 100 7 156 33 170 80 262 252 255 475 -2 75 -7 96
-35 153 -65 132 -256 261 -445 302 -12 3 -50 7 -86 10 -36 3 -70 7 -77 9 -6 2
-13 2 -15 1z"/>
</g>
</svg>
